<svg data-v-423bf9ae="" xmlns="http://www.w3.org/2000/svg" viewBox="0 0 681 90" class="iconLeft"><!----><!----><!----><g data-v-423bf9ae="" id="977f0d34-446b-4a79-a049-f934f81458b3" fill="#D1A103" transform="matrix(4.538578033447266,0,0,4.538578033447266,106.50530242919922,-2.8366122245788574)"><path d="M7.49 14.35L8.88 14.35L8.88 9.14L5.33 9.14L5.33 10.50L7.35 10.50L7.35 11.26C7.35 12.47 6.27 13.10 5.04 13.10C3.50 13.10 2.46 12.05 2.46 10.26L2.46 8.67C2.46 6.87 3.50 5.82 5.04 5.82C6.23 5.82 7.01 6.45 7.39 7.36L8.68 6.61C8.01 5.24 6.79 4.41 5.04 4.41C2.48 4.41 0.77 6.20 0.77 9.46C0.77 12.74 2.48 14.52 4.80 14.52C6.29 14.52 7.24 13.80 7.43 12.87L7.49 12.87ZM12.49 14.35L12.49 9.70C12.49 8.95 13.16 8.54 14.36 8.54L14.97 8.54L14.97 7.07L14.56 7.07C13.40 7.07 12.77 7.73 12.56 8.47L12.49 8.47L12.49 7.07L10.96 7.07L10.96 14.35ZM22.40 14.35L22.40 13.10L21.63 13.10L21.63 9.45C21.63 7.83 20.58 6.90 18.70 6.90C17.29 6.90 16.44 7.50 15.96 8.32L16.87 9.14C17.23 8.57 17.75 8.15 18.61 8.15C19.63 8.15 20.10 8.67 20.10 9.55L20.10 10.16L18.79 10.16C16.76 10.16 15.68 10.91 15.68 12.35C15.68 13.66 16.53 14.52 18.03 14.52C19.10 14.52 19.88 14.04 20.16 13.13L20.23 13.13C20.33 13.85 20.75 14.35 21.55 14.35ZM18.47 13.36C17.71 13.36 17.23 13.02 17.23 12.38L17.23 12.12C17.23 11.49 17.75 11.14 18.82 11.14L20.10 11.14L20.10 12.19C20.10 12.91 19.40 13.36 18.47 13.36ZM23.90 17.15L25.42 17.15L25.42 13.15L25.49 13.15C25.80 14 26.57 14.52 27.54 14.52C29.37 14.52 30.44 13.10 30.44 10.71C30.44 8.32 29.37 6.90 27.54 6.90C26.57 6.90 25.80 7.41 25.49 8.27L25.42 8.27L25.42 7.07L23.90 7.07ZM27.08 13.20C26.15 13.20 25.42 12.70 25.42 11.96L25.42 9.46C25.42 8.72 26.15 8.22 27.08 8.22C28.13 8.22 28.83 8.96 28.83 10.08L28.83 11.34C28.83 12.46 28.13 13.20 27.08 13.20ZM32.19 14.35L33.71 14.35L33.71 9.46C33.71 8.62 34.50 8.22 35.29 8.22C36.23 8.22 36.67 8.79 36.67 9.91L36.67 14.35L38.19 14.35L38.19 9.73C38.19 7.94 37.31 6.90 35.83 6.90C34.71 6.90 34.09 7.49 33.78 8.27L33.71 8.27L33.71 3.99L32.19 3.99ZM41.08 5.77C41.71 5.77 41.97 5.43 41.97 4.97L41.97 4.73C41.97 4.27 41.71 3.93 41.08 3.93C40.45 3.93 40.17 4.27 40.17 4.73L40.17 4.97C40.17 5.43 40.45 5.77 41.08 5.77ZM40.31 14.35L41.83 14.35L41.83 7.07L40.31 7.07ZM46.83 14.52C48.23 14.52 49.22 13.86 49.70 12.67L48.54 12.05C48.23 12.78 47.71 13.26 46.83 13.26C45.71 13.26 45.14 12.49 45.14 11.37L45.14 10.07C45.14 8.95 45.71 8.18 46.83 8.18C47.66 8.18 48.17 8.61 48.38 9.28L49.64 8.69C49.21 7.62 48.29 6.90 46.83 6.90C44.73 6.90 43.53 8.39 43.53 10.71C43.53 13.03 44.73 14.52 46.83 14.52ZM57.34 14.35L57.34 13.10L56.57 13.10L56.57 9.45C56.57 7.83 55.52 6.90 53.65 6.90C52.23 6.90 51.38 7.50 50.90 8.32L51.81 9.14C52.18 8.57 52.70 8.15 53.55 8.15C54.57 8.15 55.05 8.67 55.05 9.55L55.05 10.16L53.73 10.16C51.70 10.16 50.62 10.91 50.62 12.35C50.62 13.66 51.48 14.52 52.98 14.52C54.04 14.52 54.82 14.04 55.10 13.13L55.17 13.13C55.27 13.85 55.69 14.35 56.49 14.35ZM53.41 13.36C52.65 13.36 52.18 13.02 52.18 12.38L52.18 12.12C52.18 11.49 52.70 11.14 53.76 11.14L55.05 11.14L55.05 12.19C55.05 12.91 54.35 13.36 53.41 13.36ZM61.38 14.35L61.38 13.10L60.37 13.10L60.37 3.99L58.84 3.99L58.84 12.84C58.84 13.78 59.36 14.35 60.40 14.35ZM67.83 14.35L67.83 10.46L70.45 10.46C72.24 10.46 73.29 9.30 73.29 7.52C73.29 5.74 72.24 4.58 70.45 4.58L66.25 4.58L66.25 14.35ZM67.83 5.96L70.35 5.96C71.15 5.96 71.62 6.40 71.62 7.18L71.62 7.85C71.62 8.64 71.15 9.07 70.35 9.07L67.83 9.07ZM80.93 14.35L80.93 13.10L80.16 13.10L80.16 9.45C80.16 7.83 79.11 6.90 77.24 6.90C75.82 6.90 74.97 7.50 74.49 8.32L75.40 9.14C75.77 8.57 76.29 8.15 77.14 8.15C78.16 8.15 78.64 8.67 78.64 9.55L78.64 10.16L77.32 10.16C75.29 10.16 74.21 10.91 74.21 12.35C74.21 13.66 75.07 14.52 76.57 14.52C77.63 14.52 78.41 14.04 78.69 13.13L78.76 13.13C78.86 13.85 79.28 14.35 80.08 14.35ZM77 13.36C76.24 13.36 75.77 13.02 75.77 12.38L75.77 12.12C75.77 11.49 76.29 11.14 77.35 11.14L78.64 11.14L78.64 12.19C78.64 12.91 77.94 13.36 77 13.36ZM84.74 14.52C86.49 14.52 87.63 13.58 87.63 12.18C87.63 11.00 86.91 10.30 85.32 10.07L84.64 9.98C83.87 9.86 83.52 9.60 83.52 9.04C83.52 8.50 83.92 8.13 84.76 8.13C85.54 8.13 86.16 8.51 86.53 8.96L87.47 8.06C86.81 7.34 86.07 6.90 84.76 6.90C83.16 6.90 82.05 7.73 82.05 9.14C82.05 10.49 82.96 11.13 84.45 11.31L85.12 11.40C85.88 11.49 86.16 11.84 86.16 12.31C86.16 12.92 85.71 13.29 84.83 13.29C83.96 13.29 83.30 12.89 82.77 12.25L81.79 13.15C82.47 14 83.37 14.52 84.74 14.52ZM91.57 14.52C93.32 14.52 94.46 13.58 94.46 12.18C94.46 11.00 93.74 10.30 92.15 10.07L91.48 9.98C90.71 9.86 90.36 9.60 90.36 9.04C90.36 8.50 90.75 8.13 91.59 8.13C92.37 8.13 92.99 8.51 93.37 8.96L94.30 8.06C93.65 7.34 92.90 6.90 91.59 6.90C89.99 6.90 88.89 7.73 88.89 9.14C88.89 10.49 89.80 11.13 91.28 11.31L91.95 11.40C92.71 11.49 92.99 11.84 92.99 12.31C92.99 12.92 92.54 13.29 91.66 13.29C90.79 13.29 90.13 12.89 89.60 12.25L88.62 13.15C89.31 14 90.20 14.52 91.57 14.52ZM97.31 14.35L98.99 14.35L99.96 11.03L100.53 8.99L100.56 8.99L101.15 11.03L102.10 14.35L103.82 14.35L105.78 7.07L104.37 7.07L103.61 10.12L102.97 12.88L102.93 12.88L102.16 10.12L101.26 7.07L99.89 7.07L99.01 10.12L98.25 12.88L98.21 12.88L97.55 10.12L96.81 7.07L95.33 7.07ZM110.00 14.52C112.03 14.52 113.34 13.03 113.34 10.71C113.34 8.39 112.03 6.90 110.00 6.90C107.97 6.90 106.65 8.39 106.65 10.71C106.65 13.03 107.97 14.52 110.00 14.52ZM110.00 13.26C108.96 13.26 108.26 12.61 108.26 11.33L108.26 10.09C108.26 8.81 108.96 8.16 110.00 8.16C111.03 8.16 111.73 8.81 111.73 10.09L111.73 11.33C111.73 12.61 111.03 13.26 110.00 13.26ZM116.56 14.35L116.56 9.70C116.56 8.95 117.24 8.54 118.44 8.54L119.04 8.54L119.04 7.07L118.64 7.07C117.47 7.07 116.84 7.73 116.63 8.47L116.56 8.47L116.56 7.07L115.04 7.07L115.04 14.35ZM124.91 14.35L126.43 14.35L126.43 3.99L124.91 3.99L124.91 8.27L124.84 8.27C124.53 7.41 123.76 6.90 122.79 6.90C120.96 6.90 119.90 8.32 119.90 10.71C119.90 13.10 120.96 14.52 122.79 14.52C123.76 14.52 124.53 14 124.84 13.15L124.91 13.15ZM123.26 13.20C122.21 13.20 121.51 12.46 121.51 11.34L121.51 10.08C121.51 8.96 122.21 8.22 123.26 8.22C124.18 8.22 124.91 8.72 124.91 9.46L124.91 11.96C124.91 12.70 124.18 13.20 123.26 13.20Z"></path></g><!----><g data-v-423bf9ae="" id="8e5bc84f-d3a7-400c-ba0d-089f31c879e6" transform="matrix(2.8125,0,0,2.8125,0,0)" stroke="none" fill="#D1A103"><path d="M11.579 32H32L21.789 14.314z"></path><circle cx="8.683" cy="8.683" r="8.683"></circle></g><!----></svg>